<svg xmlns="http://www.w3.org/2000/svg" xmlns:xlink="http://www.w3.org/1999/xlink" width="690" height="112" version="1.1" viewBox="0 0 690 112" style="background:#fff"><title>flow</title><desc>Created with Sketch.</desc><g id="Page-1" fill="none" fill-rule="evenodd" stroke="none" stroke-width="1"><g id="flow"><g id="Group-2" fill="#DC4904" transform="translate(0.000000, 32.000000)"><polygon id="Rectangle" points="10 0 10 10 0 10" opacity=".3"/><polygon id="Rectangle" points="10 4 10 10 4 10"/></g><g id="Group-3" transform="translate(0.000000, -3.000000)"><g id="Group" fill="#C31633" transform="translate(168.000000, 35.000000)"><circle id="Oval" cx="5" cy="5" r="5" opacity=".2"/><circle id="Oval" cx="5" cy="5" r="2"/></g><polygon id="Rectangle" fill="#0961C4" points="423 35 423 45 413 45" opacity=".3" transform="translate(418.000000, 40.000000) scale(-1, 1) translate(-418.000000, -40.000000)"/><polygon id="Rectangle" fill="#0961C4" points="419 39 419 45 413 45" transform="translate(416.000000, 42.000000) scale(-1, 1) translate(-416.000000, -42.000000)"/><g id="Group-4" fill="#4CAF50" transform="translate(559.000000, 35.000000)"><rect id="Rectangle-2" width="10" height="10" x="0" y="0" opacity=".3"/><rect id="Rectangle" width="4" height="4" x="3" y="3"/></g><path id="Line-2" stroke="#C31633" stroke-linecap="round" stroke-linejoin="round" stroke-width="3" d="M294.5,-58.8956044 L294.5,139.895604" transform="translate(294.500000, 40.500000) rotate(-90.000000) translate(-294.500000, -40.500000)"/><path id="Line-2" stroke="#DC4904" stroke-linecap="round" stroke-linejoin="round" stroke-width="3" d="M90.5,-19.3351648 L90.5,100.335165" transform="translate(90.500000, 40.500000) rotate(-90.000000) translate(-90.500000, -40.500000)"/><path id="Line-2" stroke="#0961C4" stroke-linecap="round" stroke-linejoin="round" stroke-width="3" d="M490.5,-13.7197802 L490.5,93.5" transform="translate(490.500000, 40.000000) rotate(-90.000000) translate(-490.500000, -40.000000)"/><path id="Line-2" stroke="#4CAF50" stroke-linecap="round" stroke-linejoin="round" stroke-width="3" d="M636.5,-13.5 L636.5,91.5" transform="translate(636.500000, 40.000000) rotate(-90.000000) translate(-636.500000, -40.000000)"/><text id="Warming-up" fill="#DC4904" font-family="sans-serif" font-size="12" font-weight="bold"><tspan x="1" y="14">Warming up</tspan></text><text id="Ongoing" fill="#C31633" font-family="sans-serif" font-size="12" font-weight="bold"><tspan x="168" y="14">Ongoing</tspan></text><text id="Cooling-down" fill="#0961C4" font-family="sans-serif" font-size="12" font-weight="bold"><tspan x="411" y="14">Cooling down</tspan></text><text id="Open-alert" fill="#546E7A" font-family="sans-serif" font-size="12" font-weight="bold"><tspan x="156.14" y="97">Open</tspan> <tspan x="159.171" y="114">alert</tspan></text><path id="Line" stroke="#CFD8DC" stroke-linecap="square" d="M172.5,58.5 L172.5,75.5293864"/><text id="Close-alert" fill="#546E7A" font-family="sans-serif" font-size="12" font-weight="bold"><tspan x="547.685" y="97">Close</tspan> <tspan x="551.171" y="114">alert</tspan></text><path id="Line" stroke="#CFD8DC" stroke-linecap="square" d="M564.5,58.5 L564.5,75.5293864"/><text id="Alert-Reminders" fill="#546E7A" font-family="sans-serif" font-size="12" font-weight="bold"><tspan x="283.184" y="97">Alert</tspan> <tspan x="264.501" y="114">Reminders</tspan></text><path id="Line" stroke="#CFD8DC" stroke-linecap="square" d="M297.5,58.5 L297.5,75.5293864"/><path id="Line" stroke="#CFD8DC" stroke-linecap="square" d="M257.5,58.5 L287.5,75.5293864"/><path id="Line" stroke="#CFD8DC" stroke-linecap="square" d="M337.5,58.5 L307.5,75.5293864"/><text id="Finished" fill="#4CAF50" font-family="sans-serif" font-size="12" font-weight="bold"><tspan x="558" y="14">Closed</tspan></text></g></g></g></svg>